Coordinates
version=1
nRows=8
nColumns=40
inDegrees=yes

Units are S.I. units (second, meters, Newtons, ...)
Angles are in degrees.

endheader
time	pelvis_tilt	pelvis_list	pelvis_rotation	pelvis_tx	pelvis_ty	pelvis_tz	hip_flexion_r	hip_adduction_r	hip_rotation_r	knee_angle_r	knee_angle_r_beta	ankle_angle_r	subtalar_angle_r	mtp_angle_r	hip_flexion_l	hip_adduction_l	hip_rotation_l	knee_angle_l	knee_angle_l_beta	ankle_angle_l	subtalar_angle_l	mtp_angle_l	lumbar_extension	lumbar_bending	lumbar_rotation	arm_flex_r	arm_add_r	arm_rot_r	elbow_flex_r	pro_sup_r	wrist_flex_r	wrist_dev_r	arm_flex_l	arm_add_l	arm_rot_l	elbow_flex_l	pro_sup_l	wrist_flex_l	wrist_dev_l
     24.74000000	     -6.02593327	     -3.47374429	      2.15605379	      0.78338421	      0.92719384	      0.44549500	     30.93511650	     -7.74211596	     -5.89722810	     68.56214754	     68.56214754	     -2.84657932	    -18.77339362	      7.14437196	     15.99618226	     -2.98117665	     -3.84581843	     23.29621811	     23.29621811	     15.76845780	    -10.40514580	      3.79541477	    -11.82492923	      6.99633508	      0.70031501	     -4.14382604	    -14.49884403	    -17.93026761	     23.52776484	     46.43774636	      0.00000000	      0.00000000	      0.16102217	    -17.26059545	     -2.11583146	     77.19682036	     47.36941417	      0.00000000	      0.00000000
     24.75228571	     -6.13037343	     -3.65668560	      1.73318959	      0.78191702	      0.92789719	      0.44556687	     32.08207566	     -7.25897582	     -6.05546481	     67.41321594	     67.41321594	     -2.37777042	    -18.76567556	      7.10226009	     15.42326934	     -3.21931169	     -4.12721483	     22.77321752	     22.77321752	     15.90133000	    -10.35500072	      3.90338609	    -11.86144418	      7.10122955	      0.54808518	     -4.31301302	    -14.57945098	    -17.95991496	     23.38578440	     46.44883773	      0.00000000	      0.00000000	      0.61369982	    -17.43100709	     -2.19294170	     77.56328349	     47.38504256	      0.00000000	      0.00000000
     24.76457143	     -6.18107882	     -3.81511345	      1.29131266	      0.78048894	      0.92868985	      0.44565230	     33.04240968	     -6.75271428	     -6.19557474	     66.03235543	     66.03235543	     -1.95789363	    -18.74811308	      7.12178021	     14.74513865	     -3.42943523	     -4.44799290	     22.16306416	     22.16306416	     16.03147038	    -10.29556572	      4.03124794	    -11.97321052	      7.21322163	      0.52204286	     -4.53248258	    -14.64713324	    -17.99994306	     23.21658986	     46.46183298	      0.00000000	      0.00000000	      1.10948015	    -17.56123775	     -2.26461730	     78.12717333	     47.40437548	      0.00000000	      0.00000000
     24.77685714	     -6.12718799	     -3.91400934	      0.84240494	      0.77920908	      0.92955730	      0.44572446	     33.74148868	     -6.25060222	     -6.28259857	     64.38102795	     64.38102795	     -1.52089231	    -18.70044363	      7.18377693	     13.93773917	     -3.56646700	     -4.81490352	     21.54850176	     21.54850176	     16.14968301	    -10.22033281	      4.16782987	    -12.17147784	      7.27557161	      0.59739279	     -4.78334931	    -14.72634780	    -18.08702654	     22.99721145	     46.48319005	      0.00000000	      0.00000000	      1.56080629	    -17.60453228	     -2.25872603	     78.96936041	     47.42558186	      0.00000000	      0.00000000
     24.78914286	     -6.17126668	     -4.05096509	      0.39173737	      0.77781188	      0.93019394	      0.44597751	     34.43136107	     -5.67770283	     -6.39277976	     62.44064984	     62.44064984	     -1.12629764	    -18.55759189	      7.19318959	     13.28614927	     -3.74941756	     -5.15348491	     20.99672548	     20.99672548	     16.26030362	    -10.17774860	      4.28524463	    -12.31559067	      7.32440931	      0.62835898	     -4.89766836	    -14.78137077	    -18.20610531	     22.84746031	     46.50561931	      0.00000000	      0.00000000	      1.97495235	    -17.74513225	     -2.24850620	     79.77270208	     47.44810882	      0.00000000	      0.00000000
     24.80142857	     -6.34787280	     -4.18948876	     -0.07121426	      0.77628512	      0.93049045	      0.44636426	     35.14742591	     -5.07357260	     -6.50113526	     60.17984517	     60.17984517	     -0.71906703	    -18.27870141	      7.18180668	     12.85255601	     -3.93776558	     -5.46341358	     20.55851002	     20.55851002	     16.37336310	    -10.20580657	      4.36136092	    -12.28788740	      7.37924560	      0.59435261	     -4.87953944	    -14.79972799	    -18.26797015	     22.81918415	     46.51549804	      0.00000000	      0.00000000	      2.41063522	    -17.91410577	     -2.29050047	     80.27871791	     47.46569846	      0.00000000	      0.00000000
     24.81371429	     -6.34111994	     -4.29784283	     -0.52121163	      0.77492846	      0.93098103	      0.44681394	     35.42737943	     -4.46746309	     -6.59664314	     57.41964177	     57.41964177	     -0.60793103	    -17.99676406	      6.05057511	     12.14720605	     -4.11411787	     -5.94101354	     20.01280676	     20.01280676	     16.52859660	     -9.94827061	      4.38277414	    -12.53403002	      7.39623445	      0.67979775	     -4.80450989	    -14.80099820	    -18.71373936	     22.65531838	     46.58170508	      0.00000000	      0.00000000	      2.57944247	    -18.09182415	     -2.13510335	     81.75459646	     47.50377712	      0.00000000	      0.00000000
     24.82600000	     -6.47480339	     -4.47936058	     -0.94654098	      0.77341808	      0.93112512	      0.44742587	     35.71412584	     -3.77459902	     -6.74068266	     54.29190543	     54.29190543	     -0.27822067	    -17.40537078	      5.48900843	     11.71835353	     -4.35742571	     -6.23449790	     19.66173975	     19.66173975	     16.67176526	     -9.98518925	      4.40402070	    -12.58062248	      7.51943524	      0.62916516	     -4.56203506	    -14.80038740	    -18.88324320	     22.67708358	     46.60562674	      0.00000000	      0.00000000	      2.95323407	    -18.15732160	     -2.17520539	     82.16601220	     47.52507833	      0.00000000	      0.00000000
